<svg xmlns="http://www.w3.org/2000/svg" xmlns:xlink="http://www.w3.org/1999/xlink" xmlns:sketch="http://www.bohemiancoding.com/sketch/ns" height="196.5789493332279" width="322.15789835274705" version="1.1" style=""><rect id="backgroundrect" width="100%" height="100%" x="0" y="0" fill="none" stroke="none" class="" style=""/>
    <!-- Generator: Sketch 3.0.4 (8053) - http://www.bohemiancoding.com/sketch -->
    <title>Easel</title>
    <defs/>
    
<g class="currentLayer" style=""><title>Layer 1</title><g id="Icons" stroke="none" stroke-width="1" fill="#b5d68d" fill-rule="evenodd" sketch:type="MSPage" class="" fill-opacity="1">
        <g id="Design-&amp;-Development" sketch:type="MSArtboardGroup" fill="#b5d68d">
            <g id="Easel" sketch:type="MSLayerGroup" fill="#b5d68d" transform="">
                <path d="M147.84190423874992,129.08852273621915 L139.5595517284653,148.11483974870623 C139.0736537145288,149.22787929393672 138.10185768665517,149.86843196669042 137.08864989623046,149.86843196669042 C136.67177148654628,149.86843196669042 136.25213229269173,149.76061617028634 135.85457937219803,149.53547141897187 C134.4907519921711,148.74905031578908 133.9385951581523,146.84641861454045 134.62050884816566,145.2799185138456 L142.90286135845025,126.25360150135852 C143.58477504846354,124.68710140066366 145.24400633469057,124.05289083358082 146.60783371471751,124.83296983109291 C147.97166109474443,125.61939093427566 148.52381792876352,127.52202263552425 147.84190423874992,129.08852273621915 L147.84190423874992,129.08852273621915 zM186.49288262007806,126.25360150135852 C185.80820814589464,124.68710140066366 184.15173764383775,124.05289083358082 182.78791026381074,124.83296983109291 C181.42408288378385,125.61939093427566 180.87192604976502,127.52202263552425 181.5538397397783,129.08852273621915 L189.83619225006294,148.11483974870623 C190.3220902639998,149.22787929393672 191.29388629187306,149.86843196669042 192.30985486646784,149.86843196669042 C192.72397249198232,149.86843196669042 193.14361168583653,149.76061617028634 193.54116460633023,149.53547141897187 C194.90499198635715,148.74905031578908 195.45714882037626,146.84641861454045 194.77523513036266,145.2799185138456 L186.49288262007806,126.25360150135852 L186.49288262007806,126.25360150135852 zM208.86903831869697,102.30263943547271 L206.1082541486021,102.30263943547271 L206.1082541486021,54.736846904255 C206.1082541486021,49.491925514479405 202.39499943982443,45.22368839801146 197.8259016383175,45.22368839801146 L184.02198078784318,45.22368839801146 L184.02198078784318,57.90789973966952 L145.3737631906851,57.90789973966952 L145.3737631906851,45.22368839801146 L131.56708155604073,45.22368839801146 C127.00074453870383,45.22368839801146 123.28472904575614,49.491925514479405 123.28472904575614,54.736846904255 L123.28472904575614,102.30263943547271 L120.52670565983131,102.30263943547271 C118.99999201376886,102.30263943547271 117.7631607055664,103.72327110573835 117.7631607055664,105.47369227088723 L117.7631607055664,118.15790361254528 C117.7631607055664,119.90832477769416 118.99999201376886,121.3289564479598 120.52670565983131,121.3289564479598 L208.86903831869697,121.3289564479598 C210.3957519647594,121.3289564479598 211.63258327296185,119.90832477769416 211.63258327296185,118.15790361254528 L211.63258327296185,105.47369227088723 C211.63258327296185,103.72327110573835 210.3957519647594,102.30263943547271 208.86903831869697,102.30263943547271 L208.86903831869697,102.30263943547271 zM178.5031732318235,42.05263556259695 C178.5031732318235,40.30221439744807 177.266341923621,38.88158272718243 175.73962827755858,38.88158272718243 L167.45727576727398,38.88158272718243 L167.45727576727398,26.197371385524377 C167.45727576727398,24.446950220375502 166.22320524324155,23.026318550109863 164.69649159717912,23.026318550109863 C163.1725387352867,23.026318550109863 161.9384682112543,24.446950220375502 161.9384682112543,26.197371385524377 L161.9384682112543,38.88158272718243 L153.65611570096968,38.88158272718243 C152.12940205490725,38.88158272718243 150.8925707467048,40.30221439744807 150.8925707467048,42.05263556259695 L150.8925707467048,51.56579406884049 L178.5031732318235,51.56579406884049 L178.5031732318235,42.05263556259695 L178.5031732318235,42.05263556259695 z" sketch:type="MSShapeGroup" id="svg_1" fill="#b5d68d" transform=""/>
            </g>
        </g>
    </g><g stroke="none" stroke-width="1" fill="#4f175b" fill-rule="evenodd" sketch:type="MSPage" class="" fill-opacity="1" id="svg_2">
        <g id="svg_4" sketch:type="MSArtboardGroup" fill="#4f175b">
            <g id="Easel" sketch:type="MSLayerGroup" fill="#4f175b">
                <path d="M158.63137824921745,122.11483902135251 L150.34902573893282,141.1411560338396 C149.86312772499633,142.25419557907009 148.8913316971227,142.89474825182378 147.878123906698,142.89474825182378 C147.4612454970138,142.89474825182378 147.04160630315926,142.7869324554197 146.64405338266556,142.56178770410523 C145.28022600263864,141.77536660092244 144.72806916861984,139.87273489967382 145.40998285863319,138.30623479897895 L153.69233536891778,119.27991778649186 C154.37424905893107,117.71341768579703 156.0334803451581,117.07920711871418 157.39730772518504,117.85928611622626 C158.76113510521196,118.64570721940902 159.31329193923105,120.54833892065761 158.63137824921745,122.11483902135251 L158.63137824921745,122.11483902135251 zM197.2823566305456,119.27991778649186 C196.59768215636217,117.71341768579703 194.94121165430528,117.07920711871418 193.57738427427827,117.85928611622626 C192.21355689425138,118.64570721940902 191.66140006023255,120.54833892065761 192.34331375024584,122.11483902135251 L200.62566626053047,141.1411560338396 C201.11156427446733,142.25419557907009 202.0833603023406,142.89474825182378 203.09932887693537,142.89474825182378 C203.51344650244985,142.89474825182378 203.93308569630406,142.7869324554197 204.33063861679776,142.56178770410523 C205.69446599682468,141.77536660092244 206.2466228308438,139.87273489967382 205.5647091408302,138.30623479897895 L197.2823566305456,119.27991778649186 L197.2823566305456,119.27991778649186 zM219.6585123291645,95.32895572060607 L216.89772815906963,95.32895572060607 L216.89772815906963,47.763163189388365 C216.89772815906963,42.51824179961277 213.18447345029196,38.25000468314482 208.61537564878503,38.25000468314482 L194.8114547983107,38.25000468314482 L194.8114547983107,50.93421602480288 L156.16323720115264,50.93421602480288 L156.16323720115264,38.25000468314482 L142.35655556650826,38.25000468314482 C137.79021854917136,38.25000468314482 134.07420305622367,42.51824179961277 134.07420305622367,47.763163189388365 L134.07420305622367,95.32895572060607 L131.31617967029882,95.32895572060607 C129.7894660242364,95.32895572060607 128.55263471603394,96.74958739087171 128.55263471603394,98.50000855602059 L128.55263471603394,111.18421989767864 C128.55263471603394,112.93464106282752 129.7894660242364,114.35527273309316 131.31617967029882,114.35527273309316 L219.6585123291645,114.35527273309316 C221.18522597522693,114.35527273309316 222.42205728342938,112.93464106282752 222.42205728342938,111.18421989767864 L222.42205728342938,98.50000855602059 C222.42205728342938,96.74958739087171 221.18522597522693,95.32895572060607 219.6585123291645,95.32895572060607 L219.6585123291645,95.32895572060607 zM189.29264724229103,35.07895184773031 C189.29264724229103,33.32853068258143 188.05581593408854,31.907899012315795 186.5291022880261,31.907899012315795 L178.2467497777415,31.907899012315795 L178.2467497777415,19.22368767065774 C178.2467497777415,17.47326650550886 177.01267925370908,16.052634835243225 175.48596560764665,16.052634835243225 C173.96201274575424,16.052634835243225 172.72794222172183,17.47326650550886 172.72794222172183,19.22368767065774 L172.72794222172183,31.907899012315795 L164.4455897114372,31.907899012315795 C162.91887606537477,31.907899012315795 161.68204475717232,33.32853068258143 161.68204475717232,35.07895184773031 L161.68204475717232,44.59211035397385 L189.29264724229103,44.59211035397385 L189.29264724229103,35.07895184773031 L189.29264724229103,35.07895184773031 z" sketch:type="MSShapeGroup" id="svg_1" fill="#4f175b"/>
            </g>
        </g>
    </g></g></svg>