<svg xmlns="http://www.w3.org/2000/svg" xmlns:xlink="http://www.w3.org/1999/xlink" version="1.1" enable-background="new 0 0 1000 1000" xml:space="preserve" width="392.36363817640586" height="370.18181952169107" style=""><rect id="backgroundrect" width="100%" height="100%" x="0" y="0" fill="none" stroke="none" class="" style=""/>
<metadata> Svg Vector Icons : http://www.onlinewebfonts.com/icon </metadata>

<g class="currentLayer" style=""><title>Layer 1</title><g id="svg_1" class="" fill-opacity="1" fill="#b5d68d"><path d="M139.107428233261,82.72726821899414 C111.1827288965099,82.72726821899414 88.55454530250407,105.76174008351609 88.55454530250407,134.19408122487494 v110.06843342223418 c0,28.43234114135887 22.628183594005836,51.49353513101366 50.55288293075696,51.49353513101366 c12.008931733551185,0 16.93836222679927,6.5736427826825965 16.781039977014757,14.563558197406563 l-0.5244074992817112,26.85573575852036 c-0.13110187482042784,6.413310031885459 7.49902723972847,9.860464174023893 12.087592858443442,5.5047577773683525 l43.18495756584891,-42.220957709912604 c3.0677838707980105,-3.019600140012737 5.2440749928171115,-2.9394337646141686 9.517996111963058,-2.9394337646141686 h65.83936153481882 c27.924699336751118,0 52.62429255291971,-24.79813212329044 52.62429255291971,-53.230473264649305 V134.19408122487494 C338.64448170995206,105.76174008351609 316.01629811594626,82.72726821899414 288.0915987791951,82.72726821899414 H139.107428233261 zM161.42096732769784,176.7357044363818 c-7.472806864764384,0 -13.529713481468148,-7.508917162332558 -13.529713481468148,-16.754772458300764 c0,-9.245855295968203 6.056906616703764,-16.754772458300764 13.529713481468148,-16.754772458300764 h104.3833127320246 c7.472806864764384,0 13.555933856432233,7.508917162332558 13.555933856432233,16.754772458300764 c0,9.245855295968203 -6.056906616703764,16.754772458300764 -13.555933856432233,16.754772458300764 H161.42096732769784 zM161.00144132827245,237.047540861238 c-7.263043865051699,0 -13.136407857006864,-7.508917162332558 -13.136407857006864,-16.754772458300764 c0,-9.245855295968203 5.8733639919551655,-16.754772458300764 13.136407857006864,-16.754772458300764 h72.47311640073248 c7.263043865051699,0 13.136407857006864,7.508917162332558 13.136407857006864,16.754772458300764 c0,9.245855295968203 -5.8733639919551655,16.754772458300764 -13.136407857006864,16.754772458300764 H161.00144132827245 z" id="svg_2" fill="#b5d68d"/></g><g class="" fill-opacity="1" fill="#4f175b" id="svg_4"><path d="M166.38015572273244,57.27272272109985 C138.45545638598134,57.27272272109985 115.8272727919755,80.3071945856218 115.8272727919755,108.73953572698065 v110.06843342223418 c0,28.43234114135887 22.628183594005836,51.49353513101366 50.55288293075696,51.49353513101366 c12.008931733551185,0 16.93836222679927,6.5736427826825965 16.781039977014757,14.563558197406563 l-0.5244074992817112,26.85573575852036 c-0.13110187482042784,6.413310031885459 7.49902723972847,9.860464174023893 12.087592858443442,5.5047577773683525 l43.18495756584891,-42.220957709912604 c3.0677838707980105,-3.019600140012737 5.2440749928171115,-2.9394337646141686 9.517996111963058,-2.9394337646141686 h65.83936153481882 c27.924699336751118,0 52.62429255291971,-24.79813212329044 52.62429255291971,-53.230473264649305 V108.73953572698065 C365.9172091994235,80.3071945856218 343.2890256054177,57.27272272109985 315.36432626866656,57.27272272109985 H166.38015572273244 zM188.69369481716927,151.28115893848752 c-7.472806864764384,0 -13.529713481468148,-7.508917162332558 -13.529713481468148,-16.754772458300764 c0,-9.245855295968203 6.056906616703764,-16.754772458300764 13.529713481468148,-16.754772458300764 h104.3833127320246 c7.472806864764384,0 13.555933856432233,7.508917162332558 13.555933856432233,16.754772458300764 c0,9.245855295968203 -6.056906616703764,16.754772458300764 -13.555933856432233,16.754772458300764 H188.69369481716927 zM188.27416881774388,211.5929953633437 c-7.263043865051699,0 -13.136407857006864,-7.508917162332558 -13.136407857006864,-16.754772458300764 c0,-9.245855295968203 5.8733639919551655,-16.754772458300764 13.136407857006864,-16.754772458300764 h72.47311640073248 c7.263043865051699,0 13.136407857006864,7.508917162332558 13.136407857006864,16.754772458300764 c0,9.245855295968203 -5.8733639919551655,16.754772458300764 -13.136407857006864,16.754772458300764 H188.27416881774388 z" id="svg_5" fill="#4f175b"/></g><polyline fill="none" stroke="#000000" stroke-dashoffset="" fill-rule="evenodd" marker-start="" marker-mid="" marker-end="" id="svg_3" points="912.7272529444424,943.6363431835969 912.7272529444424,945.4545249623707 " style="color: rgb(229, 198, 133);"/></g></svg>